<svg width="20" height="20" xmlns="http://www.w3.org/2000/svg" xmlns:xlink="http://www.w3.org/1999/xlink">
  <defs>
    <path id="a" d="M7 10l5 5 5-5z"/>
    <path id="c" d="M0 0h50v50H0z"/>
    <path d="M12 2C6.47 2 2 6.47 2 12s4.47 10 10 10 10-4.47 10-10S17.53 2 12 2zm0 18c-4.41 0-8-3.59-8-8s3.59-8 8-8 8 3.59 8 8-3.59 8-8 8z" id="d"/>
    <path id="f" d="M0 0h50v50H0z"/>
  </defs>
  <g fill="none" fill-rule="evenodd" opacity=".501">
    <g transform="translate(-2 -1.5)">
      <mask id="b" fill="#fff">
        <use xlink:href="#a"/>
      </mask>
      <g mask="url(#b)">
        <use fill="#000" xlink:href="#c" transform="translate(-13 -13)"/>
      </g>
    </g>
    <g transform="translate(-2 -2)">
      <mask id="e" fill="#fff">
        <use xlink:href="#d"/>
      </mask>
      <g mask="url(#e)">
        <use fill="#000" xlink:href="#f" transform="translate(-13 -13)"/>
      </g>
    </g>
  </g>
</svg>
